<svg id="Layer_1" data-name="Layer 1" xmlns="http://www.w3.org/2000/svg" viewBox="0 0 870.78 286.95"><defs><style>.cls-1{fill:#004960;}.cls-2{fill:#fff;}.cls-3{fill:#02bcb3;}</style></defs><rect class="cls-1" x="793.76" y="173.84" width="77.01" height="29.21" rx="11.4"/><path class="cls-2" d="M1055.87,435.6v-4.75H1060v4.75Z" transform="translate(-252.22 -239.19)"/><path class="cls-2" d="M1074.59,431.08c-.48,2.33-2.12,4.84-6.29,4.84-4.35,0-6.59-3-6.59-7.21s2.52-7.42,6.78-7.42c4.71,0,6,3.38,6.1,5h-3.78a2.19,2.19,0,0,0-2.4-1.94c-1.76,0-2.77,1.55-2.77,4.26,0,3,1.06,4.34,2.76,4.34a2.39,2.39,0,0,0,2.39-1.84Z" transform="translate(-252.22 -239.19)"/><path class="cls-2" d="M1089.51,428.58c0,4.23-2.53,7.34-7,7.34s-6.87-3.09-6.87-7.27,2.61-7.36,7-7.36C1086.85,421.29,1089.51,424.2,1089.51,428.58Zm-9.9,0c0,2.69,1.16,4.28,3,4.28s2.95-1.59,2.95-4.26c0-2.92-1.07-4.31-3-4.31S1079.61,425.65,1079.61,428.61Z" transform="translate(-252.22 -239.19)"/><path class="cls-2" d="M1091.49,425.22c0-1.21,0-2.41,0-3.6h3.71c0,.34.12,1.12.15,1.66a4.36,4.36,0,0,1,3.88-2,3.7,3.7,0,0,1,3.61,2.13,4.83,4.83,0,0,1,4.3-2.13c2.44,0,4.43,1.5,4.43,5.14v9.17h-3.77v-8.7c0-1.27-.46-2.5-2-2.5s-2.29,1.06-2.29,3.2v8h-3.8V427c0-1.45-.35-2.62-2-2.62s-2.31,1-2.31,3.37v7.81h-3.83Z" transform="translate(-252.22 -239.19)"/><path class="cls-1" d="M377.29,404.41H355.73A75.09,75.09,0,0,1,353.48,391c-7.54,10.17-20.82,15.69-39.72,15.69-39.48,0-61.54-29.84-61.54-68.58,0-40.88,23.79-71.68,66.66-71.68,35,0,55.6,19.75,58.89,42.94H348.36c-2.79-9.11-10-19.88-29.87-19.88-27.93,0-35.9,23.36-35.9,47.34,0,23.4,9.12,46.45,36.08,46.45,25.14,0,29.77-17.46,29.77-29.63v-1.23H318.62v-24.1h58.67Z" transform="translate(-252.22 -239.19)"/><path class="cls-1" d="M481.18,378c0,9.72.79,23.92,1.38,26.38h-27c-.79-2-1.38-7.4-1.43-10-3.7,5.74-10.65,12.35-28.71,12.35-24.62,0-35-16.19-35-32,0-23.27,18.68-34,48.61-34H453.6v-6.24c0-7.26-2.61-14.4-15.73-14.4-11.93,0-14.54,5.07-15.85,12.47H395.14c1.53-18.15,12.76-32.83,43.8-32.66,27.35.18,42.24,10.86,42.24,35.17Zm-27.56-20.1H442.1c-17,0-23.35,5.2-23.35,15,0,7.4,4.54,13.62,14.7,13.62,18,0,20.17-12.49,20.17-26Z" transform="translate(-252.22 -239.19)"/><path class="cls-1" d="M519.91,373.71c2.14,8.14,8.78,12.71,19.33,12.71s14.24-3.75,14.24-9.93c0-6.56-4.38-9.13-19-12.72-33.27-8.2-38.71-18.5-38.71-32.91,0-15,10.61-30.93,41.41-30.93,31,0,41.45,16.91,42.34,30.75H552.62c-.9-3.77-3.42-10.91-16.71-10.91-9.35,0-12.37,4.15-12.37,8.74,0,5.08,3.17,7.53,19.75,11.4,34.06,7.92,38.88,19.6,38.88,34.57,0,16.91-12.86,32.3-44,32.3s-43.8-15-46-33.07Z" transform="translate(-252.22 -239.19)"/><path class="cls-1" d="M583.83,302.3h15.74V274.65h28.28V302.3h20v21.25h-20V374c0,7.75,2.36,10.76,10.79,10.76a52.47,52.47,0,0,0,6.44-.31v19.44c-5.61,1.91-13.3,2-19,2-19.92,0-26.5-10.65-26.5-28.52V323.55H583.83Z" transform="translate(-252.22 -239.19)"/><path class="cls-1" d="M658.47,330c0-10.15,0-19.16-.2-27.7H686c.37,2.29.74,12.42.74,17.93,4.51-11.67,15.4-20.2,32.77-20.3v27c-20.52-.53-32.77,5-32.77,33v44.52H658.47Z" transform="translate(-252.22 -239.19)"/><path class="cls-3" d="M841.5,340.21c0,37.53-18.73,71-57,71-35.76,0-55.72-31.05-55.72-70.19s18.08-39.67,54.84-39.67C817.81,301.31,841.5,299.64,841.5,340.21Zm-95.86.18c.5,8.44,2.34,38.83,22,50.65a33.48,33.48,0,0,0,17.53,4.69c28.2,0,39.43-26.1,39.43-55.26,0-12.88,0-14.78-2.22-15-2.46-.2-3.25,4.11-12.94,14.52-8.2,8.82-19,9.52-21.55,9.69-1.95.12-15.63.78-25.87-9.69-10.06-10.29-10.17-14.88-12.93-14.52C746.59,325.84,744.93,328.37,745.64,340.39Z" transform="translate(-252.22 -239.19)"/><path class="cls-3" d="M874.49,372.81c.68,8.84,6.52,13.61,17.67,13.61,10.52,0,14.71-4.77,14.71-11.52,0-6.53-5.39-9.78-18.15-13.78-23.92-7.35-31.25-15.67-31.25-28.26,0-18.47,14.43-32.53,41.56-32.53,28.44,0,41.17,14.42,40.45,30.74H912.29c-.29-5.48-3.14-11-14.66-11-6.6,0-13.3,2.24-13.3,9.37,0,5.48,5.4,7.54,18,11.55,23.82,7.5,32.15,16.93,32.15,31.08,0,23.47-21.13,34.29-45.33,34.29-27.21,0-43-12.27-41.84-33.58Z" transform="translate(-252.22 -239.19)"/><path class="cls-3" d="M1030.77,379.41c-2.25,10.55-4.47,22-4.56,25h-26.12c.22-2.92.91-8.24,1.44-11.52-5.1,6.47-11.82,13.5-30.86,13.5-20.13,0-28.57-14.19-28.57-26.2,0-28.44,24.89-36,47.4-38.47,8.51-.81,16.42-.81,22.82-1l.89-4.79c1.47-7.37,1.5-17-13-17-12.76,0-15.08,6.93-17.39,11.89H955.49c3.85-16.42,15.22-30.47,47-30.47,24.82,0,43.16,10.28,37.4,37.06Zm-22.28-20.86a146.65,146.65,0,0,0-17.63,1.16c-15.06,2.25-21,7.24-21,15.84,0,5.9,3.83,10.47,12.46,10.47,18.52,0,23.16-15,25.73-25.89Z" transform="translate(-252.22 -239.19)"/><path class="cls-3" d="M1054.17,302.3h15.12l6-27.53h26.64l-5.79,27.53h19.21l-4.58,20.49h-19.21l-10.71,51.4c-1.32,6.36-.75,10.55,7.28,10.55a57.18,57.18,0,0,0,8.74-.64l-4.08,19.42c-6,1.9-12.53,1.93-18.17,1.93-21.24,0-24.57-12.18-20.87-30.05l11-52.61h-15.13Z" transform="translate(-252.22 -239.19)"/><path class="cls-3" d="M785.7,283.82s-7.44-9.46,0-21.46,0-23.17,0-23.17,11.15,11.16,7.43,22.32S785.7,269,785.7,283.82Z" transform="translate(-252.22 -239.19)"/><path class="cls-3" d="M768.52,290.72s-7.44-9.46,0-21.47,0-23.16,0-23.16,11.16,11.16,7.44,22.31S768.52,275.84,768.52,290.72Z" transform="translate(-252.22 -239.19)"/><path class="cls-3" d="M800.57,290.72s-7.44-9.46,0-21.47,0-23.16,0-23.16,11.16,11.16,7.44,22.31S800.57,275.84,800.57,290.72Z" transform="translate(-252.22 -239.19)"/><path class="cls-1" d="M399.09,468.05h-10v9.25h11.11v2.77H385.81V454.44h13.85v2.77H389.12v8.1h10Z" transform="translate(-252.22 -239.19)"/><path class="cls-1" d="M430.44,483.84c-3.47-.91-6.85-1.94-9.82-3a4.87,4.87,0,0,0-1.56-.38c-6.09-.23-11.3-4.71-11.3-13s5-13.5,11.95-13.5,11.49,5.4,11.49,13c0,6.58-3.05,10.8-7.31,12.29v.15c2.55.64,5.33,1.25,7.5,1.63Zm-2.74-16.7c0-5.14-2.67-10.42-8.11-10.42s-8.33,5.17-8.29,10.73,3,10.34,8.14,10.34S427.7,473,427.7,467.14Z" transform="translate(-252.22 -239.19)"/><path class="cls-1" d="M443.56,454.44v15.17c0,5.75,2.55,8.18,6,8.18,3.8,0,6.23-2.51,6.23-8.18V454.44h3.35v14.94c0,7.88-4.14,11.11-9.7,11.11-5.25,0-9.2-3-9.2-10.95v-15.1Z" transform="translate(-252.22 -239.19)"/><path class="cls-1" d="M472.93,454.44v25.63h-3.31V454.44Z" transform="translate(-252.22 -239.19)"/><path class="cls-1" d="M483.47,454.74a38.08,38.08,0,0,1,6.36-.49c3.27,0,5.66.76,7.19,2.13a6.9,6.9,0,0,1,2.24,5.36,7.54,7.54,0,0,1-2,5.48c-1.75,1.86-4.6,2.81-7.83,2.81a11.45,11.45,0,0,1-2.67-.23v10.27h-3.31Zm3.31,12.36a11.15,11.15,0,0,0,2.74.27c4,0,6.43-1.94,6.43-5.48,0-3.38-2.4-5-6.05-5a13.41,13.41,0,0,0-3.12.27Z" transform="translate(-252.22 -239.19)"/><path class="cls-1" d="M509.42,472l-2.66,8.06h-3.43L512,454.44h4l8.75,25.63h-3.54L518.51,472Zm8.41-2.59L515.32,462c-.57-1.67-1-3.19-1.34-4.68h-.07c-.38,1.53-.8,3.09-1.29,4.64l-2.52,7.42Z" transform="translate(-252.22 -239.19)"/><path class="cls-1" d="M554.77,468.81c-.19-3.57-.42-7.87-.38-11.06h-.12c-.87,3-1.94,6.2-3.23,9.73l-4.53,12.44H544l-4.14-12.21c-1.22-3.61-2.25-6.92-3-10h-.08c-.07,3.19-.26,7.49-.49,11.33l-.69,11h-3.15l1.79-25.63h4.22l4.37,12.4c1.07,3.15,1.94,6,2.59,8.63h.11c.65-2.59,1.56-5.4,2.7-8.63l4.57-12.4h4.22l1.6,25.63h-3.23Z" transform="translate(-252.22 -239.19)"/><path class="cls-1" d="M571.82,454.44v25.63h-3.31V454.44Z" transform="translate(-252.22 -239.19)"/><path class="cls-1" d="M595.63,468.05h-10v9.25h11.11v2.77H582.35V454.44H596.2v2.77H585.66v8.1h10Z" transform="translate(-252.22 -239.19)"/><path class="cls-1" d="M605.83,480.07V454.44h3.61l8.22,13a72.37,72.37,0,0,1,4.6,8.33l.08,0c-.31-3.42-.38-6.54-.38-10.54V454.44h3.12v25.63h-3.35l-8.14-13a80.65,80.65,0,0,1-4.79-8.55l-.12,0c.19,3.24.27,6.32.27,10.58v10.95Z" transform="translate(-252.22 -239.19)"/><path class="cls-1" d="M640.49,457.25h-7.8v-2.81h19v2.81h-7.83v22.82h-3.35Z" transform="translate(-252.22 -239.19)"/><path class="cls-1" d="M680.17,467c0,8.82-5.37,13.5-11.91,13.5-6.77,0-11.53-5.25-11.53-13,0-8.14,5.06-13.46,11.91-13.46S680.17,459.38,680.17,467Zm-19.9.42c0,5.47,3,10.38,8.18,10.38s8.22-4.83,8.22-10.65c0-5.1-2.67-10.42-8.18-10.42S660.27,461.78,660.27,467.41Z" transform="translate(-252.22 -239.19)"/><path class="cls-1" d="M702.05,454.74a38,38,0,0,1,6.35-.49c3.27,0,5.67.76,7.19,2.13a6.87,6.87,0,0,1,2.24,5.36,7.54,7.54,0,0,1-2,5.48c-1.74,1.86-4.6,2.81-7.83,2.81a11.36,11.36,0,0,1-2.66-.23v10.27h-3.31Zm3.31,12.36a11,11,0,0,0,2.73.27c4,0,6.43-1.94,6.43-5.48,0-3.38-2.39-5-6-5a13.35,13.35,0,0,0-3.12.27Z" transform="translate(-252.22 -239.19)"/><path class="cls-1" d="M727,454.78a34.77,34.77,0,0,1,6.36-.53c3.53,0,5.81.64,7.41,2.09a6.36,6.36,0,0,1,2,4.87,6.73,6.73,0,0,1-4.83,6.54v.11c2,.69,3.16,2.51,3.76,5.18a41.34,41.34,0,0,0,2,7h-3.42a32.63,32.63,0,0,1-1.71-6.12c-.76-3.54-2.13-4.87-5.14-5h-3.12v11.1H727Zm3.31,11.68h3.39c3.54,0,5.78-1.94,5.78-4.87,0-3.31-2.4-4.76-5.9-4.8a13.66,13.66,0,0,0-3.27.31Z" transform="translate(-252.22 -239.19)"/><path class="cls-1" d="M774.29,467c0,8.82-5.36,13.5-11.9,13.5-6.78,0-11.53-5.25-11.53-13,0-8.14,5.06-13.46,11.91-13.46S774.29,459.38,774.29,467Zm-19.89.42c0,5.47,3,10.38,8.18,10.38s8.21-4.83,8.21-10.65c0-5.1-2.66-10.42-8.18-10.42S754.4,461.78,754.4,467.41Z" transform="translate(-252.22 -239.19)"/><path class="cls-1" d="M783.35,454.44h13.81v2.77h-10.5v8.52h9.7v2.74h-9.7v11.6h-3.31Z" transform="translate(-252.22 -239.19)"/><path class="cls-1" d="M819.91,468.05h-10v9.25h11.11v2.77H806.63V454.44h13.85v2.77H809.94v8.1h10Z" transform="translate(-252.22 -239.19)"/><path class="cls-1" d="M829.65,476a11.68,11.68,0,0,0,5.94,1.68c3.38,0,5.36-1.79,5.36-4.38,0-2.4-1.37-3.76-4.83-5.1-4.19-1.48-6.77-3.65-6.77-7.26,0-4,3.31-7,8.29-7a11.61,11.61,0,0,1,5.67,1.25l-.91,2.7a10.32,10.32,0,0,0-4.87-1.21c-3.5,0-4.83,2.09-4.83,3.84,0,2.39,1.55,3.57,5.09,4.94,4.34,1.68,6.55,3.77,6.55,7.54,0,3.95-2.93,7.38-9,7.38a13.25,13.25,0,0,1-6.54-1.64Z" transform="translate(-252.22 -239.19)"/><path class="cls-1" d="M856.93,454.44v25.63h-3.31V454.44Z" transform="translate(-252.22 -239.19)"/><path class="cls-1" d="M889.38,467c0,8.82-5.36,13.5-11.91,13.5-6.77,0-11.52-5.25-11.52-13,0-8.14,5.06-13.46,11.9-13.46C884.85,454,889.38,459.38,889.38,467Zm-19.89.42c0,5.47,3,10.38,8.17,10.38s8.22-4.83,8.22-10.65c0-5.1-2.66-10.42-8.18-10.42S869.49,461.78,869.49,467.41Z" transform="translate(-252.22 -239.19)"/><path class="cls-1" d="M898.44,480.07V454.44h3.61l8.22,13a70.88,70.88,0,0,1,4.6,8.33l.08,0c-.31-3.42-.38-6.54-.38-10.54V454.44h3.12v25.63h-3.35l-8.14-13a80.65,80.65,0,0,1-4.79-8.55l-.12,0c.19,3.24.27,6.32.27,10.58v10.95Z" transform="translate(-252.22 -239.19)"/><path class="cls-1" d="M932.38,472l-2.67,8.06h-3.42L935,454.44h4l8.75,25.63h-3.53L941.47,472Zm8.4-2.59L938.27,462c-.57-1.67-.95-3.19-1.33-4.68h-.08c-.38,1.53-.79,3.09-1.29,4.64l-2.51,7.42Z" transform="translate(-252.22 -239.19)"/><path class="cls-1" d="M956.27,454.44h3.31V477.3h10.95v2.77H956.27Z" transform="translate(-252.22 -239.19)"/><path class="cls-1" d="M502.1,500.39a39.05,39.05,0,0,1,6.35-.49c3.27,0,5.67.76,7.19,2.13a6.88,6.88,0,0,1,2.24,5.36,7.56,7.56,0,0,1-2,5.48c-1.75,1.87-4.61,2.82-7.84,2.82a11.36,11.36,0,0,1-2.66-.23v10.27H502.1Zm3.31,12.37a11.1,11.1,0,0,0,2.74.26c4,0,6.42-1.94,6.42-5.47s-2.39-5-6-5a14.1,14.1,0,0,0-3.12.26Z" transform="translate(-252.22 -239.19)"/><path class="cls-1" d="M528,517.67l-2.66,8.06H522l8.71-25.64h4l8.75,25.64h-3.54l-2.73-8.06Zm8.41-2.59-2.51-7.38c-.57-1.68-1-3.2-1.33-4.68h-.08c-.38,1.52-.8,3.08-1.29,4.64l-2.51,7.42Z" transform="translate(-252.22 -239.19)"/><path class="cls-1" d="M551.94,500.43a34.66,34.66,0,0,1,6.35-.53c3.54,0,5.82.65,7.42,2.09a6.39,6.39,0,0,1,2,4.87,6.72,6.72,0,0,1-4.83,6.54v.12c2,.68,3.16,2.51,3.77,5.17a40.3,40.3,0,0,0,2,7h-3.43a32.88,32.88,0,0,1-1.71-6.12c-.76-3.54-2.13-4.87-5.13-5h-3.12v11.11h-3.31Zm3.31,11.68h3.38c3.54,0,5.78-1.94,5.78-4.87,0-3.31-2.39-4.75-5.89-4.79a13.76,13.76,0,0,0-3.27.3Z" transform="translate(-252.22 -239.19)"/><path class="cls-1" d="M581.5,517.67l-2.67,8.06h-3.42l8.71-25.64h4l8.75,25.64h-3.54l-2.74-8.06Zm8.4-2.59-2.51-7.38c-.57-1.68-.95-3.2-1.33-4.68H586c-.38,1.52-.8,3.08-1.3,4.64l-2.51,7.42Z" transform="translate(-252.22 -239.19)"/><path class="cls-1" d="M621.52,500.09v10.73h12.4V500.09h3.35v25.64h-3.35v-12h-12.4v12h-3.31V500.09Z" transform="translate(-252.22 -239.19)"/><path class="cls-1" d="M669.69,512.64c0,8.83-5.37,13.51-11.91,13.51-6.77,0-11.53-5.25-11.53-13,0-8.14,5.06-13.47,11.91-13.47S669.69,505,669.69,512.64Zm-19.9.42c0,5.48,3,10.39,8.18,10.39s8.22-4.83,8.22-10.65c0-5.1-2.67-10.43-8.18-10.43S649.79,507.43,649.79,513.06Z" transform="translate(-252.22 -239.19)"/><path class="cls-1" d="M678.29,521.7a11.74,11.74,0,0,0,5.93,1.67c3.39,0,5.36-1.79,5.36-4.37,0-2.4-1.36-3.77-4.83-5.1-4.18-1.48-6.77-3.65-6.77-7.27,0-4,3.31-7,8.3-7a11.58,11.58,0,0,1,5.66,1.26l-.91,2.7a10.18,10.18,0,0,0-4.87-1.22c-3.5,0-4.83,2.09-4.83,3.84,0,2.4,1.56,3.58,5.1,4.95,4.33,1.67,6.54,3.76,6.54,7.53,0,4-2.93,7.38-9,7.38a13.17,13.17,0,0,1-6.54-1.64Z" transform="translate(-252.22 -239.19)"/><path class="cls-1" d="M707.12,502.91h-7.79v-2.82h19v2.82h-7.84v22.82h-3.35Z" transform="translate(-252.22 -239.19)"/><path class="cls-1" d="M739.2,513.71h-10V523h11.11v2.78H725.92V500.09h13.85v2.78H729.23V511h10Z" transform="translate(-252.22 -239.19)"/><path class="cls-1" d="M749.39,500.09h3.31V523h11v2.78H749.39Z" transform="translate(-252.22 -239.19)"/><path class="cls-1" d="M785.38,513.71h-10V523h11.1v2.78H772.11V500.09H786v2.78H775.42V511h10Z" transform="translate(-252.22 -239.19)"/><path class="cls-1" d="M795.58,500.43a34.66,34.66,0,0,1,6.35-.53c3.54,0,5.82.65,7.42,2.09a6.36,6.36,0,0,1,2,4.87,6.72,6.72,0,0,1-4.83,6.54v.12c2,.68,3.15,2.51,3.76,5.17a41.25,41.25,0,0,0,2,7h-3.42a32.88,32.88,0,0,1-1.71-6.12c-.77-3.54-2.13-4.87-5.14-5h-3.12v11.11h-3.31Zm3.31,11.68h3.39c3.53,0,5.78-1.94,5.78-4.87,0-3.31-2.4-4.75-5.9-4.79a13.76,13.76,0,0,0-3.27.3Z" transform="translate(-252.22 -239.19)"/><path class="cls-1" d="M828,494.27l-4.86,4.45h-2.71l3.5-4.45Zm-3.91,5.82v25.64h-3.31V500.09Z" transform="translate(-252.22 -239.19)"/><path class="cls-1" d="M838.8,517.67l-2.66,8.06h-3.43l8.72-25.64h4l8.75,25.64h-3.54l-2.74-8.06Zm8.41-2.59-2.51-7.38c-.57-1.68-1-3.2-1.33-4.68h-.08c-.38,1.52-.8,3.08-1.29,4.64l-2.51,7.42Z" transform="translate(-252.22 -239.19)"/></svg>