<svg id="Layer_1" data-name="Layer 1" xmlns="http://www.w3.org/2000/svg" viewBox="0 0 296.7 100.87"><defs><style>.cls-1,.cls-4{fill:#004960;}.cls-2{fill:#fff;}.cls-3{fill:#02bcb3;}.cls-4{font-size:12.96px;font-family:MyriadPro-Regular, Myriad Pro;}.cls-11,.cls-4{letter-spacing:0.12em;}.cls-5{letter-spacing:0.04em;}.cls-6{letter-spacing:0.12em;}.cls-7{letter-spacing:0.13em;}.cls-8{letter-spacing:0.1em;}.cls-9{letter-spacing:0.13em;}.cls-10{letter-spacing:0.13em;}</style></defs><rect class="cls-1" x="270.46" y="59.23" width="26.24" height="9.95" rx="3.5"/><path class="cls-2" d="M810,402.83v-1.62h1.42v1.62Z" transform="translate(-536.14 -335.91)"/><path class="cls-2" d="M816.34,401.29a2,2,0,0,1-2.14,1.65,2.18,2.18,0,0,1-2.25-2.46,2.31,2.31,0,0,1,2.31-2.53,1.89,1.89,0,0,1,2.08,1.69h-1.29a.74.74,0,0,0-.82-.66c-.6,0-.94.53-.94,1.46s.36,1.47.94,1.47a.81.81,0,0,0,.81-.62Z" transform="translate(-536.14 -335.91)"/><path class="cls-2" d="M821.42,400.43a2.36,2.36,0,1,1-2.31-2.48A2.26,2.26,0,0,1,821.42,400.43Zm-3.37,0c0,.92.39,1.46,1,1.46s1-.54,1-1.45-.36-1.47-1-1.47S818.05,399.44,818.05,400.44Z" transform="translate(-536.14 -335.91)"/><path class="cls-2" d="M822.1,399.29c0-.41,0-.82,0-1.23h1.26c0,.12,0,.38,0,.57a1.49,1.49,0,0,1,1.32-.68,1.26,1.26,0,0,1,1.23.73,1.66,1.66,0,0,1,1.47-.73c.83,0,1.51.51,1.51,1.75v3.13h-1.29v-3c0-.43-.15-.85-.69-.85s-.78.36-.78,1.09v2.73h-1.3v-2.92c0-.49-.12-.89-.68-.89s-.79.33-.79,1.15v2.66h-1.3Z" transform="translate(-536.14 -335.91)"/><path class="cls-1" d="M578.75,392.2H571.4a24.92,24.92,0,0,1-.76-4.57c-2.57,3.46-7.1,5.34-13.54,5.34-13.45,0-21-10.16-21-23.36,0-13.93,8.1-24.42,22.71-24.42,11.92,0,18.94,6.73,20.06,14.63h-10c-.95-3.1-3.4-6.77-10.18-6.77-9.51,0-12.23,7.95-12.23,16.12,0,8,3.11,15.83,12.29,15.83,8.57,0,10.15-5.95,10.15-10.09v-.42H558.76v-8.22h20Z" transform="translate(-536.14 -335.91)"/><path class="cls-1" d="M614.15,383.21a76.49,76.49,0,0,0,.47,9h-9.21a13.88,13.88,0,0,1-.48-3.4c-1.26,1.95-3.63,4.21-9.78,4.21-8.39,0-11.93-5.52-11.93-10.91,0-7.93,6.36-11.59,16.56-11.59h5v-2.12c0-2.48-.89-4.91-5.36-4.91-4.07,0-4.95,1.73-5.4,4.25h-9.16c.52-6.18,4.35-11.19,14.92-11.13,9.32.06,14.4,3.7,14.4,12Zm-9.39-6.85h-3.93c-5.8,0-8,1.77-8,5.13,0,2.52,1.54,4.64,5,4.64,6.12,0,6.88-4.26,6.88-8.85Z" transform="translate(-536.14 -335.91)"/><path class="cls-1" d="M627.34,381.74c.73,2.77,3,4.33,6.59,4.33s4.85-1.28,4.85-3.38-1.49-3.11-6.48-4.34c-11.33-2.79-13.18-6.3-13.18-11.21,0-5.11,3.61-10.54,14.1-10.54s14.13,5.76,14.43,10.48h-9.16c-.31-1.29-1.17-3.72-5.7-3.72-3.18,0-4.21,1.41-4.21,3,0,1.73,1.08,2.57,6.73,3.88,11.61,2.7,13.25,6.68,13.25,11.78,0,5.76-4.38,11-15,11s-14.92-5.1-15.69-11.27Z" transform="translate(-536.14 -335.91)"/><path class="cls-1" d="M649.12,357.41h5.37V348h9.63v9.42h6.82v7.24h-6.82v17.17c0,2.64.81,3.67,3.68,3.67a17.68,17.68,0,0,0,2.19-.11V392a22.16,22.16,0,0,1-6.47.66c-6.79,0-9-3.63-9-9.72v-18.3h-5.37Z" transform="translate(-536.14 -335.91)"/><path class="cls-1" d="M674.55,366.85c0-3.46,0-6.53-.06-9.44h9.45c.12.78.25,4.23.25,6.11,1.53-4,5.24-6.89,11.16-6.92v9.19c-7-.18-11.16,1.71-11.16,11.24V392.2h-9.64Z" transform="translate(-536.14 -335.91)"/><path class="cls-3" d="M736.92,370.32c0,12.79-6.39,24.18-19.43,24.18-12.18,0-19-10.58-19-23.91s6.16-13.52,18.68-13.52C728.85,357.07,736.92,356.5,736.92,370.32Zm-32.66.07c.17,2.87.79,13.22,7.5,17.25a11.38,11.38,0,0,0,6,1.6c9.61,0,13.43-8.89,13.43-18.83,0-4.38,0-5-.76-5.09s-1.1,1.4-4.4,4.95a11,11,0,0,1-7.35,3.3,11.73,11.73,0,0,1-8.81-3.3c-3.43-3.51-3.47-5.07-4.41-4.95S704,366.29,704.26,370.39Z" transform="translate(-536.14 -335.91)"/><path class="cls-3" d="M748.16,381.43c.23,3,2.22,4.64,6,4.64,3.58,0,5-1.62,5-3.93s-1.83-3.33-6.18-4.69c-8.15-2.5-10.65-5.34-10.65-9.63,0-6.29,4.92-11.08,14.16-11.08,9.69,0,14,4.91,13.78,10.47H761c-.1-1.87-1.07-3.74-5-3.74-2.25,0-4.53.77-4.53,3.2,0,1.86,1.84,2.57,6.13,3.93,8.12,2.56,11,5.77,11,10.59,0,8-7.21,11.68-15.45,11.68-9.27,0-14.65-4.18-14.25-11.44Z" transform="translate(-536.14 -335.91)"/><path class="cls-3" d="M801.41,383.68c-.77,3.6-1.53,7.5-1.56,8.52H791c.08-1,.31-2.81.5-3.93-1.74,2.21-4,4.6-10.52,4.6-6.86,0-9.73-4.83-9.73-8.92,0-9.69,8.47-12.28,16.15-13.11,2.9-.28,5.59-.28,7.77-.34l.3-1.63c.5-2.52.52-5.8-4.42-5.8-4.34,0-5.13,2.36-5.92,4.05h-9.32c1.31-5.59,5.18-10.38,16-10.38,8.46,0,14.71,3.5,12.75,12.63Zm-7.6-7.11a50.08,50.08,0,0,0-6,.4c-5.13.77-7.14,2.47-7.14,5.4,0,2,1.3,3.56,4.24,3.56,6.31,0,7.89-5.12,8.77-8.82Z" transform="translate(-536.14 -335.91)"/><path class="cls-3" d="M809.38,357.41h5.15l2-9.38h9.07l-2,9.38h6.54l-1.55,7h-6.55l-3.65,17.51c-.45,2.17-.26,3.6,2.48,3.6a19.54,19.54,0,0,0,3-.22l-1.39,6.62a20.83,20.83,0,0,1-6.19.65c-7.24,0-8.38-4.15-7.11-10.23L813,364.39h-5.15Z" transform="translate(-536.14 -335.91)"/><path class="cls-3" d="M717.9,351.11a6.46,6.46,0,0,1,0-7.31,7.57,7.57,0,0,0,0-7.89s3.81,3.8,2.54,7.6S717.9,346,717.9,351.11Z" transform="translate(-536.14 -335.91)"/><path class="cls-3" d="M712.05,353.46a6.46,6.46,0,0,1,0-7.31,7.57,7.57,0,0,0,0-7.89s3.8,3.8,2.54,7.6S712.05,348.39,712.05,353.46Z" transform="translate(-536.14 -335.91)"/><path class="cls-3" d="M723,353.46a6.46,6.46,0,0,1,0-7.31,7.57,7.57,0,0,0,0-7.89s3.8,3.8,2.54,7.6S723,348.39,723,353.46Z" transform="translate(-536.14 -335.91)"/><text class="cls-4" transform="translate(44.53 82.07)">EQUI<tspan class="cls-5" x="33.28" y="0">P</tspan><tspan class="cls-6" x="40.7" y="0">A</tspan><tspan class="cls-7" x="50.21" y="0">MIEN</tspan><tspan class="cls-8" x="85.12" y="0">T</tspan><tspan class="cls-7" x="92.83" y="0">O P</tspan><tspan class="cls-9" x="116.27" y="0">R</tspan><tspan x="124.9" y="0">OFESIONAL</tspan><tspan class="cls-5"><tspan x="39.62" y="15.56">P</tspan><tspan class="cls-7" x="47.05" y="15.56">A</tspan><tspan class="cls-10" x="56.6" y="15.56">R</tspan><tspan class="cls-11" x="65.26" y="15.56">A HOSTELERÍA</tspan></tspan></text></svg>