<svg id="Layer_1" data-name="Layer 1" xmlns="http://www.w3.org/2000/svg" viewBox="0 0 1187.78 395.27"><defs><style>.cls-1{fill:#004960;}.cls-2{fill:#02bcb3;}.cls-3{fill:#fff;}</style></defs><path class="cls-1" d="M298.9,500.78H285.18v12.74h15.3v3.82H280.62V482h19.07v3.82H285.18V497H298.9Z" transform="translate(-95.75 -185.54)"/><path class="cls-1" d="M342.09,522.53c-4.77-1.26-9.44-2.67-13.52-4.09a6.87,6.87,0,0,0-2.15-.52c-8.38-.32-15.56-6.5-15.56-17.87s6.91-18.6,16.45-18.6,15.82,7.44,15.82,17.87c0,9.06-4.19,14.88-10.06,16.92v.21c3.51.89,7.34,1.73,10.33,2.26Zm-3.78-23c0-7.08-3.66-14.36-11.16-14.36-7.7,0-11.47,7.13-11.42,14.78-.05,7.49,4.09,14.25,11.21,14.25C334.23,514.2,338.31,507.6,338.31,499.53Z" transform="translate(-95.75 -185.54)"/><path class="cls-1" d="M360.17,482v20.9c0,7.92,3.51,11.27,8.23,11.27,5.24,0,8.59-3.46,8.59-11.27V482h4.61v20.59c0,10.84-5.71,15.3-13.36,15.3-7.23,0-12.68-4.14-12.68-15.09V482Z" transform="translate(-95.75 -185.54)"/><path class="cls-1" d="M400.63,482v35.31h-4.56V482Z" transform="translate(-95.75 -185.54)"/><path class="cls-1" d="M415.14,482.44a53.81,53.81,0,0,1,8.76-.68c4.5,0,7.8,1.05,9.9,2.94a9.49,9.49,0,0,1,3.09,7.39,10.39,10.39,0,0,1-2.72,7.54c-2.41,2.57-6.34,3.88-10.8,3.88a15.86,15.86,0,0,1-3.67-.31v14.14h-4.56Zm4.56,17a15,15,0,0,0,3.78.37c5.5,0,8.85-2.67,8.85-7.54,0-4.67-3.3-6.92-8.33-6.92a19.12,19.12,0,0,0-4.3.37Z" transform="translate(-95.75 -185.54)"/><path class="cls-1" d="M450.89,506.23l-3.67,11.11H442.5l12-35.31H460l12.05,35.31h-4.87l-3.77-11.11Zm11.58-3.56L459,492.51c-.79-2.31-1.31-4.41-1.84-6.45h-.1c-.53,2.1-1.1,4.24-1.78,6.39l-3.46,10.22Z" transform="translate(-95.75 -185.54)"/><path class="cls-1" d="M513.35,501.83c-.26-4.92-.57-10.84-.52-15.25h-.16c-1.21,4.14-2.67,8.55-4.45,13.42L502,517.13h-3.46l-5.71-16.82c-1.68-5-3.09-9.53-4.09-13.73h-.1c-.11,4.41-.37,10.33-.68,15.62L487,517.34h-4.34L485.11,482h5.81l6,17.08c1.47,4.35,2.67,8.22,3.56,11.89h.16c.89-3.56,2.15-7.44,3.72-11.89L510.68,482h5.82l2.2,35.31h-4.46Z" transform="translate(-95.75 -185.54)"/><path class="cls-1" d="M536.83,482v35.31h-4.56V482Z" transform="translate(-95.75 -185.54)"/><path class="cls-1" d="M569.64,500.78H555.91v12.74h15.3v3.82H551.35V482h19.07v3.82H555.91V497h13.73Z" transform="translate(-95.75 -185.54)"/><path class="cls-1" d="M583.68,517.34V482h5L600,499.89a100.15,100.15,0,0,1,6.34,11.48l.11-.05c-.42-4.72-.53-9-.53-14.52V482h4.3v35.31h-4.61l-11.22-17.92a111.8,111.8,0,0,1-6.6-11.79l-.16.06c.27,4.45.37,8.69.37,14.56v15.09Z" transform="translate(-95.75 -185.54)"/><path class="cls-1" d="M631.43,485.9H620.68V482h26.15v3.87H636v31.44h-4.61Z" transform="translate(-95.75 -185.54)"/><path class="cls-1" d="M686.08,499.32c0,12.15-7.39,18.6-16.4,18.6-9.33,0-15.88-7.23-15.88-17.92,0-11.21,7-18.55,16.41-18.55C679.85,481.45,686.08,488.84,686.08,499.32Zm-27.4.57c0,7.55,4.09,14.31,11.26,14.31s11.32-6.66,11.32-14.67c0-7-3.67-14.36-11.26-14.36S658.68,492.14,658.68,499.89Z" transform="translate(-95.75 -185.54)"/><path class="cls-1" d="M716.22,482.44a53.57,53.57,0,0,1,8.75-.68c4.51,0,7.81,1.05,9.9,2.94a9.5,9.5,0,0,1,3.1,7.39,10.4,10.4,0,0,1-2.73,7.54c-2.41,2.57-6.34,3.88-10.79,3.88a15.81,15.81,0,0,1-3.67-.31v14.14h-4.56Zm4.56,17a14.84,14.84,0,0,0,3.77.37c5.5,0,8.86-2.67,8.86-7.54,0-4.67-3.3-6.92-8.33-6.92a19.06,19.06,0,0,0-4.3.37Z" transform="translate(-95.75 -185.54)"/><path class="cls-1" d="M750.65,482.5a47.64,47.64,0,0,1,8.75-.74c4.87,0,8,.89,10.22,2.89a8.79,8.79,0,0,1,2.78,6.7,9.26,9.26,0,0,1-6.66,9v.16c2.73,1,4.35,3.46,5.19,7.13,1.15,4.92,2,8.33,2.72,9.69h-4.71c-.58-1-1.36-4-2.36-8.43-1.05-4.88-2.93-6.71-7.07-6.87h-4.3v15.3h-4.56Zm4.56,16.08h4.66c4.88,0,8-2.67,8-6.7,0-4.56-3.3-6.55-8.12-6.61a18.74,18.74,0,0,0-4.51.42Z" transform="translate(-95.75 -185.54)"/><path class="cls-1" d="M815.74,499.32c0,12.15-7.39,18.6-16.4,18.6-9.33,0-15.88-7.23-15.88-17.92,0-11.21,7-18.55,16.4-18.55C809.5,481.45,815.74,488.84,815.74,499.32Zm-27.41.57c0,7.55,4.09,14.31,11.27,14.31s11.32-6.66,11.32-14.67c0-7-3.67-14.36-11.27-14.36S788.33,492.14,788.33,499.89Z" transform="translate(-95.75 -185.54)"/><path class="cls-1" d="M828.21,482h19v3.82H832.77v11.74h13.36v3.77H832.77v16h-4.56Z" transform="translate(-95.75 -185.54)"/><path class="cls-1" d="M878.57,500.78H864.84v12.74h15.31v3.82H860.29V482h19.07v3.82H864.84V497h13.73Z" transform="translate(-95.75 -185.54)"/><path class="cls-1" d="M892,511.79a16.15,16.15,0,0,0,8.18,2.3c4.66,0,7.38-2.46,7.38-6,0-3.3-1.88-5.19-6.65-7-5.76-2.05-9.33-5-9.33-10,0-5.5,4.56-9.59,11.43-9.59a16,16,0,0,1,7.8,1.73l-1.25,3.72a14.11,14.11,0,0,0-6.71-1.68c-4.82,0-6.66,2.88-6.66,5.29,0,3.31,2.15,4.93,7,6.82,6,2.3,9,5.18,9,10.37,0,5.45-4,10.17-12.37,10.17a18.24,18.24,0,0,1-9-2.26Z" transform="translate(-95.75 -185.54)"/><path class="cls-1" d="M929.57,482v35.31H925V482Z" transform="translate(-95.75 -185.54)"/><path class="cls-1" d="M974.26,499.32c0,12.15-7.38,18.6-16.4,18.6-9.32,0-15.87-7.23-15.87-17.92,0-11.21,7-18.55,16.4-18.55C968,481.45,974.26,488.84,974.26,499.32Zm-27.4.57c0,7.55,4.09,14.31,11.27,14.31s11.32-6.66,11.32-14.67c0-7-3.67-14.36-11.27-14.36S946.86,492.14,946.86,499.89Z" transform="translate(-95.75 -185.54)"/><path class="cls-1" d="M986.74,517.34V482h5L1003,499.89a100.15,100.15,0,0,1,6.34,11.48l.1-.05c-.42-4.72-.52-9-.52-14.52V482h4.3v35.31h-4.61l-11.22-17.92a111.8,111.8,0,0,1-6.6-11.79l-.16.06c.27,4.45.37,8.69.37,14.56v15.09Z" transform="translate(-95.75 -185.54)"/><path class="cls-1" d="M1033.49,506.23l-3.67,11.11h-4.71l12-35.31h5.51l12.05,35.31h-4.87L1046,506.23Zm11.58-3.56-3.46-10.16c-.78-2.31-1.31-4.41-1.83-6.45h-.11c-.52,2.1-1.1,4.24-1.78,6.39l-3.46,10.22Z" transform="translate(-95.75 -185.54)"/><path class="cls-1" d="M1066.4,482H1071v31.49h15.09v3.82H1066.4Z" transform="translate(-95.75 -185.54)"/><path class="cls-1" d="M440.8,545.33a53.57,53.57,0,0,1,8.75-.68c4.5,0,7.81,1.05,9.9,2.94a9.47,9.47,0,0,1,3.09,7.39,10.39,10.39,0,0,1-2.72,7.54c-2.41,2.57-6.34,3.88-10.8,3.88a15.68,15.68,0,0,1-3.66-.32v14.15H440.8Zm4.56,17a14.84,14.84,0,0,0,3.77.37c5.5,0,8.85-2.67,8.85-7.55,0-4.66-3.3-6.91-8.33-6.91a19.11,19.11,0,0,0-4.29.36Z" transform="translate(-95.75 -185.54)"/><path class="cls-1" d="M476.54,569.12l-3.67,11.11h-4.72l12-35.32h5.51l12,35.32h-4.88l-3.77-11.11Zm11.58-3.56-3.46-10.17c-.79-2.3-1.31-4.4-1.83-6.44h-.11c-.52,2.09-1.1,4.24-1.78,6.39l-3.46,10.22Z" transform="translate(-95.75 -185.54)"/><path class="cls-1" d="M509.45,545.39a46.78,46.78,0,0,1,8.75-.74c4.88,0,8,.89,10.22,2.88a8.83,8.83,0,0,1,2.78,6.71,9.27,9.27,0,0,1-6.66,9v.16c2.73.94,4.35,3.46,5.19,7.13,1.15,4.92,2,8.33,2.72,9.69h-4.71c-.58-1-1.36-4-2.36-8.43-1-4.88-2.93-6.71-7.07-6.87H514v15.3h-4.56ZM514,561.47h4.66c4.88,0,8-2.67,8-6.7,0-4.56-3.3-6.55-8.12-6.61a18.74,18.74,0,0,0-4.51.42Z" transform="translate(-95.75 -185.54)"/><path class="cls-1" d="M550.17,569.12l-3.67,11.11h-4.71l12-35.32h5.51l12.05,35.32h-4.87l-3.78-11.11Zm11.58-3.56-3.46-10.17c-.78-2.3-1.31-4.4-1.83-6.44h-.11c-.52,2.09-1.1,4.24-1.78,6.39l-3.46,10.22Z" transform="translate(-95.75 -185.54)"/><path class="cls-1" d="M605.3,544.91v14.78h17.08V544.91H627v35.32h-4.61V563.67H605.3v16.56h-4.56V544.91Z" transform="translate(-95.75 -185.54)"/><path class="cls-1" d="M671.64,562.21c0,12.15-7.38,18.6-16.4,18.6-9.32,0-15.87-7.23-15.87-17.92,0-11.22,7-18.55,16.4-18.55C665.41,544.34,671.64,551.73,671.64,562.21Zm-27.4.57c0,7.55,4.09,14.31,11.27,14.31s11.31-6.66,11.31-14.67c0-7-3.66-14.36-11.26-14.36S644.24,555,644.24,562.78Z" transform="translate(-95.75 -185.54)"/><path class="cls-1" d="M683.49,574.68a16.25,16.25,0,0,0,8.18,2.3c4.66,0,7.39-2.46,7.39-6,0-3.31-1.89-5.19-6.66-7-5.76-2.05-9.33-5-9.33-10,0-5.51,4.56-9.59,11.43-9.59a16,16,0,0,1,7.8,1.73l-1.25,3.72a14.07,14.07,0,0,0-6.71-1.68c-4.82,0-6.66,2.88-6.66,5.29,0,3.3,2.15,4.93,7,6.81,6,2.31,9,5.19,9,10.38,0,5.45-4,10.17-12.37,10.17a18.24,18.24,0,0,1-9-2.26Z" transform="translate(-95.75 -185.54)"/><path class="cls-1" d="M723.22,548.79H712.47v-3.88h26.15v3.88H727.83v31.44h-4.61Z" transform="translate(-95.75 -185.54)"/><path class="cls-1" d="M767.39,563.67H753.66v12.74H769v3.82H749.11V544.91h19.07v3.83H753.66V559.9h13.73Z" transform="translate(-95.75 -185.54)"/><path class="cls-1" d="M781.44,544.91H786v31.5h15.09v3.82H781.44Z" transform="translate(-95.75 -185.54)"/><path class="cls-1" d="M831,563.67H817.28v12.74h15.31v3.82H812.73V544.91H831.8v3.83H817.28V559.9H831Z" transform="translate(-95.75 -185.54)"/><path class="cls-1" d="M845.06,545.39a46.78,46.78,0,0,1,8.75-.74c4.87,0,8,.89,10.22,2.88a8.83,8.83,0,0,1,2.78,6.71,9.27,9.27,0,0,1-6.66,9v.16c2.73.94,4.35,3.46,5.19,7.13,1.15,4.92,2,8.33,2.72,9.69h-4.71c-.58-1-1.36-4-2.36-8.43-1-4.88-2.93-6.71-7.07-6.87h-4.3v15.3h-4.56Zm4.56,16.08h4.66c4.88,0,8-2.67,8-6.7,0-4.56-3.3-6.55-8.12-6.61a18.74,18.74,0,0,0-4.51.42Z" transform="translate(-95.75 -185.54)"/><path class="cls-1" d="M889.76,536.9l-6.7,6.13h-3.72l4.82-6.13Zm-5.39,8v35.32h-4.56V544.91Z" transform="translate(-95.75 -185.54)"/><path class="cls-1" d="M904.59,569.12l-3.66,11.11h-4.72l12-35.32h5.5l12,35.32h-4.87l-3.77-11.11Zm11.58-3.56-3.45-10.17c-.79-2.3-1.31-4.4-1.84-6.44h-.1c-.53,2.09-1.1,4.24-1.78,6.39l-3.46,10.22Z" transform="translate(-95.75 -185.54)"/><path class="cls-1" d="M268,413.12H238.33a104.43,104.43,0,0,1-3.1-18.47c-10.38,14-28.67,21.6-54.71,21.6-54.38,0-84.77-41.09-84.77-94.45,0-56.32,32.77-98.74,91.82-98.74,48.21,0,76.58,27.2,81.13,59.15H228.19c-3.85-12.55-13.75-27.39-41.16-27.39-38.47,0-49.44,32.18-49.44,65.2,0,32.24,12.55,64,49.69,64,34.64,0,41-24,41-40.81v-1.69H187.22V308.3H268Z" transform="translate(-95.75 -185.54)"/><path class="cls-1" d="M411.13,376.78c0,13.39,1.09,33,1.9,36.34h-37.2c-1.09-2.78-1.9-10.19-2-13.74-5.1,7.9-14.66,17-39.54,17-33.92,0-48.22-22.29-48.22-44.11,0-32,25.73-46.82,67-46.82h20.07v-8.6c0-10-3.6-19.83-21.66-19.83-16.44,0-20,7-21.83,17.17h-37c2.11-25,17.57-45.22,60.33-45,37.68.23,58.18,15,58.18,48.43Zm-37.95-27.69H357.31c-23.47,0-32.17,7.16-32.17,20.73,0,10.18,6.25,18.75,20.25,18.75,24.74,0,27.79-17.2,27.79-35.78Z" transform="translate(-95.75 -185.54)"/><path class="cls-1" d="M464.49,370.84c2.94,11.2,12.1,17.49,26.63,17.49,14.37,0,19.61-5.16,19.61-13.68,0-9-6-12.57-26.19-17.51-45.82-11.3-53.32-25.48-53.32-45.33,0-20.67,14.61-42.6,57-42.6,42.66,0,57.1,23.29,58.32,42.35h-37c-1.25-5.2-4.72-15-23-15-12.88,0-17,5.7-17,12,0,7,4.37,10.37,27.2,15.7,46.93,10.91,53.57,27,53.57,47.62,0,23.3-17.72,44.49-60.6,44.49-42.7,0-60.33-20.61-63.42-45.54Z" transform="translate(-95.75 -185.54)"/><path class="cls-1" d="M552.53,272.47h21.69V234.38h38.94v38.09h27.55v29.28H613.16v69.41c0,10.68,3.26,14.83,14.87,14.83a72.32,72.32,0,0,0,8.87-.44v26.79C629.17,415,618.58,415,610.72,415c-27.44,0-36.5-14.68-36.5-39.29v-74H552.53Z" transform="translate(-95.75 -185.54)"/><path class="cls-1" d="M655.35,310.62c0-14,0-26.39-.28-38.15h38.2c.51,3.15,1,17.11,1,24.69,6.21-16.07,21.21-27.82,45.13-28v37.16c-28.26-.73-45.13,6.87-45.13,45.43v61.32H655.35Z" transform="translate(-95.75 -185.54)"/><path class="cls-1" d="M905.47,324.68c0,51.7-25.81,97.74-78.54,97.74-49.25,0-76.75-42.76-76.75-96.67s24.91-54.65,75.54-54.65C872.84,271.1,905.47,268.81,905.47,324.68Zm-132.05.26c.69,11.62,3.22,53.47,30.35,69.76a46.13,46.13,0,0,0,24.14,6.47c38.85,0,54.32-36,54.32-76.12,0-17.75,0-20.36-3.07-20.61-3.38-.26-4.47,5.68-17.81,20-11.31,12.15-26.17,13.12-29.69,13.34-2.69.18-21.54,1.08-35.64-13.34-13.86-14.17-14-20.49-17.81-20C774.72,304.89,772.44,308.38,773.42,324.94Z" transform="translate(-95.75 -185.54)"/><path class="cls-1" d="M828.59,247s-10.24-13,0-29.57,0-31.9,0-31.9,15.37,15.37,10.25,30.74S828.59,226.52,828.59,247Z" transform="translate(-95.75 -185.54)"/><path class="cls-1" d="M804.93,256.51s-10.24-13,0-29.57,0-31.9,0-31.9,15.37,15.37,10.25,30.73S804.93,236,804.93,256.51Z" transform="translate(-95.75 -185.54)"/><path class="cls-1" d="M849.09,256.51s-10.25-13,0-29.57,0-31.9,0-31.9,15.36,15.37,10.24,30.73S849.09,236,849.09,256.51Z" transform="translate(-95.75 -185.54)"/><path class="cls-2" d="M951.21,370c.95,12.17,9,18.74,24.35,18.74,14.49,0,20.26-6.56,20.26-15.86,0-9-7.42-13.47-25-19-32.94-10.12-43-21.57-43-38.91,0-25.45,19.87-44.82,57.24-44.82,39.17,0,56.7,19.87,55.71,42.35h-37.44c-.4-7.55-4.34-15.12-20.2-15.12-9.09,0-18.31,3.09-18.31,12.91,0,7.56,7.43,10.39,24.77,15.91,32.81,10.33,44.29,23.32,44.29,42.82,0,32.32-29.11,47.22-62.44,47.22-37.49,0-59.21-16.9-57.63-46.25Z" transform="translate(-95.75 -185.54)"/><path class="cls-2" d="M1166.49,379.07c-3.1,14.53-6.16,30.31-6.29,34.44h-36c.3-4,1.25-11.35,2-15.87-7,8.91-16.29,18.59-42.52,18.59-27.72,0-39.35-19.54-39.35-36.09,0-39.16,34.28-49.61,65.29-53,11.73-1.12,22.62-1.12,31.44-1.39l1.21-6.6c2-10.16,2.08-23.44-17.86-23.44-17.58,0-20.77,9.55-24,16.38h-37.69c5.31-22.61,21-42,64.67-42,34.2,0,59.45,14.16,51.53,51.06Zm-30.7-28.73a202.92,202.92,0,0,0-24.28,1.6c-20.74,3.1-28.87,10-28.87,21.82,0,8.13,5.28,14.42,17.17,14.42,25.5,0,31.9-20.73,35.44-35.67Z" transform="translate(-95.75 -185.54)"/><path class="cls-2" d="M1198.72,272.86h20.83l8.22-37.93h36.7l-8,37.93H1283l-6.3,28.22h-26.47l-14.75,70.8c-1.82,8.76-1,14.53,10,14.53a78.37,78.37,0,0,0,12-.88l-5.62,26.75c-8.28,2.62-17.27,2.66-25,2.66-29.25,0-33.85-16.78-28.75-41.39l15.15-72.47h-20.84Z" transform="translate(-95.75 -185.54)"/><rect class="cls-1" x="1086.78" y="240.48" width="101" height="39.37" rx="12.79"/><path class="cls-3" d="M1193.28,455.89V449.3h5.77v6.59Z" transform="translate(-95.75 -185.54)"/><path class="cls-3" d="M1219.28,449.61c-.67,3.24-3,6.73-8.74,6.73-6,0-9.15-4.19-9.15-10s3.5-10.3,9.41-10.3c6.55,0,8.37,4.69,8.48,6.89H1214a3,3,0,0,0-3.33-2.69c-2.46,0-3.85,2.16-3.85,5.92,0,4.14,1.47,6,3.83,6a3.32,3.32,0,0,0,3.32-2.55Z" transform="translate(-95.75 -185.54)"/><path class="cls-3" d="M1240,446.14c0,5.87-3.52,10.2-9.67,10.2s-9.54-4.3-9.54-10.1c0-6,3.63-10.22,9.79-10.22C1236.31,436,1240,440.05,1240,446.14Zm-13.75,0c0,3.73,1.61,5.95,4.2,5.95s4.09-2.22,4.09-5.92c0-4.07-1.49-6-4.17-6C1227.89,440.22,1226.26,442.07,1226.26,446.18Z" transform="translate(-95.75 -185.54)"/><path class="cls-3" d="M1242.76,441.47c0-1.68,0-3.34,0-5h5.14c.07.47.18,1.55.21,2.31a6,6,0,0,1,5.39-2.76,5.12,5.12,0,0,1,5,3,6.74,6.74,0,0,1,6-3c3.38,0,6.15,2.08,6.15,7.13v12.74h-5.24V443.8c0-1.75-.64-3.47-2.84-3.47s-3.18,1.47-3.18,4.45v11.11h-5.27V444c0-2-.5-3.64-2.79-3.64s-3.22,1.35-3.22,4.68v10.85h-5.32Z" transform="translate(-95.75 -185.54)"/></svg>