<svg id="Layer_1" data-name="Layer 1" xmlns="http://www.w3.org/2000/svg" viewBox="0 0 1186.89 395.91"><defs><style>.cls-1{fill:#02bcb3;}.cls-2{fill:#004960;}.cls-3{fill:#fff;}</style></defs><path class="cls-1" d="M824.66,246.37s-10.25-13,0-29.57,0-31.91,0-31.91S840,200.26,834.9,215.63,824.66,225.88,824.66,246.37Z" transform="translate(-91.53 -184.89)"/><path class="cls-1" d="M801,255.87s-10.25-13,0-29.57,0-31.91,0-31.91,15.37,15.37,10.25,30.74S801,235.38,801,255.87Z" transform="translate(-91.53 -184.89)"/><path class="cls-1" d="M845.15,255.87s-10.25-13,0-29.57,0-31.91,0-31.91,15.37,15.37,10.25,30.74S845.15,235.38,845.15,255.87Z" transform="translate(-91.53 -184.89)"/><path class="cls-1" d="M906,322.66c0,54.53-27.23,103.1-82.84,103.1-52,0-81-45.11-81-102s26.27-57.65,79.67-57.65C871.58,266.13,906,263.71,906,322.66Zm-139.29.26c.72,12.26,3.39,56.42,32,73.6a48.66,48.66,0,0,0,25.47,6.82c41,0,57.3-37.94,57.3-80.3,0-18.72,0-21.47-3.24-21.73-3.57-.29-4.72,6-18.79,21.1-11.92,12.82-27.61,13.84-31.32,14.08-2.84.18-22.71,1.14-37.59-14.08-14.62-15-14.78-21.61-18.79-21.1C768.08,301.78,765.68,305.46,766.71,322.92Z" transform="translate(-91.53 -184.89)"/><path class="cls-2" d="M294,500.78H280.28v12.74h15.3v3.82H275.72V482H294.8v3.82H280.28V497H294Z" transform="translate(-91.53 -184.89)"/><path class="cls-2" d="M337.19,522.53c-4.77-1.26-9.43-2.67-13.52-4.09a6.8,6.8,0,0,0-2.15-.52c-8.38-.32-15.56-6.5-15.56-17.87s6.92-18.6,16.45-18.6,15.83,7.44,15.83,17.87c0,9.06-4.19,14.88-10.06,16.92v.21c3.51.89,7.33,1.73,10.32,2.26Zm-3.77-23c0-7.08-3.67-14.36-11.16-14.36-7.71,0-11.48,7.13-11.43,14.78-.05,7.49,4.09,14.25,11.22,14.25S333.42,507.6,333.42,499.53Z" transform="translate(-91.53 -184.89)"/><path class="cls-2" d="M355.27,482v20.9c0,7.92,3.51,11.27,8.23,11.27,5.24,0,8.59-3.46,8.59-11.27V482h4.62v20.59c0,10.84-5.72,15.3-13.37,15.3-7.23,0-12.68-4.14-12.68-15.09V482Z" transform="translate(-91.53 -184.89)"/><path class="cls-2" d="M395.73,482v35.31h-4.56V482Z" transform="translate(-91.53 -184.89)"/><path class="cls-2" d="M410.25,482.44a53.57,53.57,0,0,1,8.75-.68c4.51,0,7.81,1.05,9.9,2.94a9.49,9.49,0,0,1,3.09,7.39,10.39,10.39,0,0,1-2.72,7.54c-2.41,2.57-6.34,3.88-10.79,3.88a15.81,15.81,0,0,1-3.67-.31v14.14h-4.56Zm4.56,17a14.84,14.84,0,0,0,3.77.37c5.5,0,8.86-2.67,8.86-7.54,0-4.67-3.31-6.92-8.34-6.92a19,19,0,0,0-4.29.37Z" transform="translate(-91.53 -184.89)"/><path class="cls-2" d="M446,506.23l-3.67,11.11h-4.71l12-35.31h5.5l12.05,35.31h-4.87l-3.78-11.11Zm11.58-3.56-3.46-10.16c-.78-2.31-1.31-4.41-1.83-6.45h-.11c-.52,2.1-1.1,4.24-1.78,6.39l-3.46,10.22Z" transform="translate(-91.53 -184.89)"/><path class="cls-2" d="M508.46,501.83c-.27-4.92-.58-10.84-.53-15.25h-.16c-1.2,4.14-2.67,8.55-4.45,13.42l-6.23,17.13h-3.46l-5.71-16.82c-1.68-5-3.1-9.53-4.09-13.73h-.11c-.1,4.41-.36,10.33-.68,15.62l-.94,15.14h-4.35L480.21,482H486l6,17.08c1.47,4.35,2.68,8.22,3.57,11.89h.15c.9-3.56,2.15-7.44,3.73-11.89L505.78,482h5.82l2.2,35.31h-4.45Z" transform="translate(-91.53 -184.89)"/><path class="cls-2" d="M531.94,482v35.31h-4.56V482Z" transform="translate(-91.53 -184.89)"/><path class="cls-2" d="M564.74,500.78H551v12.74h15.3v3.82H546.45V482h19.08v3.82H551V497h13.73Z" transform="translate(-91.53 -184.89)"/><path class="cls-2" d="M578.79,517.34V482h5l11.32,17.86a100.15,100.15,0,0,1,6.34,11.48l.1-.05c-.42-4.72-.52-9-.52-14.52V482h4.29v35.31h-4.61l-11.21-17.92a111.8,111.8,0,0,1-6.6-11.79l-.16.06c.26,4.45.37,8.69.37,14.56v15.09Z" transform="translate(-91.53 -184.89)"/><path class="cls-2" d="M626.53,485.9H615.79V482h26.15v3.87h-10.8v31.44h-4.61Z" transform="translate(-91.53 -184.89)"/><path class="cls-2" d="M681.19,499.32c0,12.15-7.39,18.6-16.4,18.6-9.33,0-15.88-7.23-15.88-17.92,0-11.21,7-18.55,16.4-18.55C675,481.45,681.19,488.84,681.19,499.32Zm-27.41.57c0,7.55,4.09,14.31,11.27,14.31s11.32-6.66,11.32-14.67c0-7-3.67-14.36-11.27-14.36S653.78,492.14,653.78,499.89Z" transform="translate(-91.53 -184.89)"/><path class="cls-2" d="M711.32,482.44a53.71,53.71,0,0,1,8.76-.68c4.5,0,7.8,1.05,9.9,2.94a9.49,9.49,0,0,1,3.09,7.39,10.35,10.35,0,0,1-2.73,7.54c-2.4,2.57-6.33,3.88-10.79,3.88a15.86,15.86,0,0,1-3.67-.31v14.14h-4.56Zm4.56,17a15,15,0,0,0,3.78.37c5.5,0,8.85-2.67,8.85-7.54,0-4.67-3.3-6.92-8.33-6.92a19.12,19.12,0,0,0-4.3.37Z" transform="translate(-91.53 -184.89)"/><path class="cls-2" d="M745.76,482.5a47.48,47.48,0,0,1,8.75-.74c4.87,0,8,.89,10.21,2.89a8.76,8.76,0,0,1,2.78,6.7,9.25,9.25,0,0,1-6.65,9v.16c2.72,1,4.35,3.46,5.18,7.13,1.16,4.92,2,8.33,2.73,9.69H764c-.57-1-1.36-4-2.36-8.43-1-4.88-2.93-6.71-7.07-6.87h-4.3v15.3h-4.55Zm4.55,16.08H755c4.87,0,8-2.67,8-6.7,0-4.56-3.3-6.55-8.12-6.61a18.81,18.81,0,0,0-4.51.42Z" transform="translate(-91.53 -184.89)"/><path class="cls-2" d="M810.84,499.32c0,12.15-7.39,18.6-16.4,18.6-9.33,0-15.88-7.23-15.88-17.92,0-11.21,7-18.55,16.4-18.55C804.61,481.45,810.84,488.84,810.84,499.32Zm-27.4.57c0,7.55,4.08,14.31,11.26,14.31S806,507.54,806,499.53c0-7-3.67-14.36-11.27-14.36S783.44,492.14,783.44,499.89Z" transform="translate(-91.53 -184.89)"/><path class="cls-2" d="M823.32,482h19v3.82H827.88v11.74h13.36v3.77H827.88v16h-4.56Z" transform="translate(-91.53 -184.89)"/><path class="cls-2" d="M873.68,500.78H860v12.74h15.3v3.82H855.39V482h19.07v3.82H860V497h13.73Z" transform="translate(-91.53 -184.89)"/><path class="cls-2" d="M887.1,511.79a16.11,16.11,0,0,0,8.17,2.3c4.67,0,7.39-2.46,7.39-6,0-3.3-1.89-5.19-6.66-7-5.76-2.05-9.32-5-9.32-10,0-5.5,4.56-9.59,11.42-9.59a16,16,0,0,1,7.81,1.73l-1.26,3.72a14,14,0,0,0-6.71-1.68c-4.82,0-6.65,2.88-6.65,5.29,0,3.31,2.15,4.93,7,6.82,6,2.3,9,5.18,9,10.37,0,5.45-4,10.17-12.36,10.17a18.25,18.25,0,0,1-9-2.26Z" transform="translate(-91.53 -184.89)"/><path class="cls-2" d="M924.67,482v35.31h-4.56V482Z" transform="translate(-91.53 -184.89)"/><path class="cls-2" d="M969.37,499.32c0,12.15-7.39,18.6-16.4,18.6-9.33,0-15.88-7.23-15.88-17.92,0-11.21,7-18.55,16.4-18.55C963.13,481.45,969.37,488.84,969.37,499.32Zm-27.4.57c0,7.55,4.08,14.31,11.26,14.31s11.32-6.66,11.32-14.67c0-7-3.67-14.36-11.27-14.36S942,492.14,942,499.89Z" transform="translate(-91.53 -184.89)"/><path class="cls-2" d="M981.85,517.34V482h5l11.31,17.86a98.64,98.64,0,0,1,6.34,11.48l.11-.05c-.42-4.72-.52-9-.52-14.52V482h4.29v35.31h-4.61l-11.21-17.92a110,110,0,0,1-6.6-11.79l-.16.06c.26,4.45.36,8.69.36,14.56v15.09Z" transform="translate(-91.53 -184.89)"/><path class="cls-2" d="M1028.59,506.23l-3.66,11.11h-4.72l12-35.31h5.5l12,35.31h-4.87l-3.77-11.11Zm11.58-3.56-3.45-10.16c-.79-2.31-1.31-4.41-1.84-6.45h-.1c-.53,2.1-1.1,4.24-1.79,6.39l-3.45,10.22Z" transform="translate(-91.53 -184.89)"/><path class="cls-2" d="M1061.5,482h4.56v31.49h15.09v3.82H1061.5Z" transform="translate(-91.53 -184.89)"/><path class="cls-2" d="M435.9,545.33a53.67,53.67,0,0,1,8.75-.68c4.51,0,7.81,1.05,9.91,2.94a9.47,9.47,0,0,1,3.09,7.39,10.4,10.4,0,0,1-2.73,7.54c-2.41,2.57-6.34,3.88-10.79,3.88a15.82,15.82,0,0,1-3.67-.32v14.15H435.9Zm4.56,17a14.89,14.89,0,0,0,3.77.37c5.51,0,8.86-2.67,8.86-7.55,0-4.66-3.3-6.91-8.33-6.91a19.28,19.28,0,0,0-4.3.36Z" transform="translate(-91.53 -184.89)"/><path class="cls-2" d="M471.64,569.12,468,580.23h-4.71l12-35.32h5.5l12.05,35.32h-4.87l-3.77-11.11Zm11.58-3.56-3.46-10.17c-.78-2.3-1.31-4.4-1.83-6.44h-.1c-.53,2.09-1.1,4.24-1.79,6.39l-3.45,10.22Z" transform="translate(-91.53 -184.89)"/><path class="cls-2" d="M504.56,545.39a46.62,46.62,0,0,1,8.75-.74c4.87,0,8,.89,10.21,2.88a8.79,8.79,0,0,1,2.78,6.71,9.26,9.26,0,0,1-6.65,9v.16c2.72.94,4.35,3.46,5.18,7.13,1.16,4.92,2,8.33,2.73,9.69h-4.72c-.57-1-1.36-4-2.36-8.43-1-4.88-2.93-6.71-7.07-6.87h-4.3v15.3h-4.55Zm4.55,16.08h4.67c4.87,0,8-2.67,8-6.7,0-4.56-3.3-6.55-8.12-6.61a18.81,18.81,0,0,0-4.51.42Z" transform="translate(-91.53 -184.89)"/><path class="cls-2" d="M545.27,569.12l-3.66,11.11h-4.72l12-35.32h5.5l12.05,35.32h-4.87l-3.77-11.11Zm11.58-3.56-3.45-10.17c-.79-2.3-1.31-4.4-1.84-6.44h-.1c-.53,2.09-1.1,4.24-1.78,6.39l-3.46,10.22Z" transform="translate(-91.53 -184.89)"/><path class="cls-2" d="M600.41,544.91v14.78h17.08V544.91h4.61v35.32h-4.61V563.67H600.41v16.56h-4.56V544.91Z" transform="translate(-91.53 -184.89)"/><path class="cls-2" d="M666.75,562.21c0,12.15-7.39,18.6-16.4,18.6-9.33,0-15.88-7.23-15.88-17.92,0-11.22,7-18.55,16.4-18.55C660.51,544.34,666.75,551.73,666.75,562.21Zm-27.41.57c0,7.55,4.09,14.31,11.27,14.31s11.32-6.66,11.32-14.67c0-7-3.67-14.36-11.27-14.36S639.34,555,639.34,562.78Z" transform="translate(-91.53 -184.89)"/><path class="cls-2" d="M678.6,574.68a16.21,16.21,0,0,0,8.17,2.3c4.67,0,7.39-2.46,7.39-6,0-3.31-1.89-5.19-6.66-7-5.76-2.05-9.32-5-9.32-10,0-5.51,4.56-9.59,11.42-9.59a16,16,0,0,1,7.81,1.73l-1.26,3.72a14,14,0,0,0-6.71-1.68c-4.82,0-6.65,2.88-6.65,5.29,0,3.3,2.15,4.93,7,6.81,6,2.31,9,5.19,9,10.38,0,5.45-4,10.17-12.36,10.17a18.25,18.25,0,0,1-9-2.26Z" transform="translate(-91.53 -184.89)"/><path class="cls-2" d="M718.32,548.79H707.58v-3.88h26.15v3.88h-10.8v31.44h-4.61Z" transform="translate(-91.53 -184.89)"/><path class="cls-2" d="M762.5,563.67H748.77v12.74h15.3v3.82H744.21V544.91h19.07v3.83H748.77V559.9H762.5Z" transform="translate(-91.53 -184.89)"/><path class="cls-2" d="M776.54,544.91h4.56v31.5h15.09v3.82H776.54Z" transform="translate(-91.53 -184.89)"/><path class="cls-2" d="M826.12,563.67H812.39v12.74h15.3v3.82H807.83V544.91H826.9v3.83H812.39V559.9h13.73Z" transform="translate(-91.53 -184.89)"/><path class="cls-2" d="M840.17,545.39a46.62,46.62,0,0,1,8.75-.74c4.87,0,8,.89,10.21,2.88a8.79,8.79,0,0,1,2.78,6.71,9.26,9.26,0,0,1-6.65,9v.16c2.72.94,4.35,3.46,5.18,7.13,1.16,4.92,2,8.33,2.73,9.69h-4.72c-.57-1-1.36-4-2.36-8.43-1-4.88-2.93-6.71-7.07-6.87h-4.3v15.3h-4.55Zm4.55,16.08h4.67c4.87,0,8-2.67,8-6.7,0-4.56-3.3-6.55-8.12-6.61a18.81,18.81,0,0,0-4.51.42Z" transform="translate(-91.53 -184.89)"/><path class="cls-2" d="M884.87,536.9,878.16,543h-3.72l4.82-6.13Zm-5.4,8v35.32h-4.56V544.91Z" transform="translate(-91.53 -184.89)"/><path class="cls-2" d="M899.7,569.12,896,580.23h-4.71l12-35.32h5.51l12,35.32H916l-3.78-11.11Zm11.58-3.56-3.46-10.17c-.78-2.3-1.31-4.4-1.83-6.44h-.11c-.52,2.09-1.1,4.24-1.78,6.39l-3.46,10.22Z" transform="translate(-91.53 -184.89)"/><path class="cls-2" d="M263.8,413.12H234.11a103.53,103.53,0,0,1-3.1-18.47c-10.38,14-28.68,21.6-54.72,21.6-54.38,0-84.76-41.09-84.76-94.45,0-56.32,32.76-98.74,91.82-98.74,48.21,0,76.58,27.2,81.12,59.15H224c-3.84-12.55-13.74-27.39-41.15-27.39-38.47,0-49.44,32.18-49.44,65.2,0,32.24,12.55,64,49.69,64,34.63,0,41-24,41-40.81v-1.69H183V308.3H263.8Z" transform="translate(-91.53 -184.89)"/><path class="cls-2" d="M406.91,376.78c0,13.39,1.08,33,1.9,36.34H371.6c-1.08-2.78-1.9-10.19-2-13.74-5.1,7.9-14.67,17-39.55,17-33.91,0-48.22-22.29-48.22-44.11,0-32,25.73-46.82,67-46.82h20.08v-8.6c0-10-3.6-19.83-21.66-19.83-16.44,0-20,7-21.83,17.17h-37c2.11-25,17.56-45.22,60.33-45,37.67.23,58.18,15,58.18,48.43Zm-38-27.69H353.08c-23.46,0-32.16,7.16-32.16,20.73,0,10.18,6.24,18.75,20.24,18.75,24.75,0,27.79-17.2,27.79-35.78Z" transform="translate(-91.53 -184.89)"/><path class="cls-2" d="M460.27,370.84c2.94,11.2,12.09,17.49,26.62,17.49s19.62-5.16,19.62-13.68c0-9-6.05-12.57-26.2-17.51C434.49,345.84,427,331.66,427,311.81c0-20.67,14.61-42.6,57-42.6,42.67,0,57.11,23.29,58.32,42.35h-37c-1.25-5.2-4.71-15-23-15-12.87,0-17,5.7-17,12,0,7,4.37,10.37,27.21,15.7,46.93,10.91,53.57,27,53.57,47.62,0,23.3-17.72,44.49-60.61,44.49-42.7,0-60.33-20.61-63.41-45.54Z" transform="translate(-91.53 -184.89)"/><path class="cls-2" d="M548.31,272.47H570V234.38h39v38.09h27.55v29.28H608.94v69.41c0,10.68,3.26,14.83,14.87,14.83a72.16,72.16,0,0,0,8.86-.44v26.79C624.94,415,614.36,415,606.5,415,579.06,415,570,400.35,570,375.74v-74H548.31Z" transform="translate(-91.53 -184.89)"/><path class="cls-2" d="M651.12,310.62c0-14,0-26.39-.27-38.15H689c.52,3.15,1,17.11,1,24.69,6.2-16.07,21.2-27.82,45.13-28v37.16c-28.26-.73-45.13,6.87-45.13,45.43v61.32h-39Z" transform="translate(-91.53 -184.89)"/><path class="cls-1" d="M946.68,369.59c.94,12.17,9,18.74,24.34,18.74,14.5,0,20.27-6.56,20.27-15.86,0-9-7.43-13.47-25-19-32.95-10.12-43-21.57-43-38.91,0-25.45,19.87-44.82,57.25-44.82,39.16,0,56.7,19.87,55.71,42.35H998.75c-.4-7.55-4.33-15.12-20.2-15.12-9.08,0-18.31,3.09-18.31,12.91,0,7.56,7.43,10.39,24.77,15.91,32.82,10.33,44.3,23.32,44.3,42.82,0,32.32-29.12,47.22-62.44,47.22-37.49,0-59.22-16.9-57.64-46.25Z" transform="translate(-91.53 -184.89)"/><path class="cls-1" d="M1162,378.68c-3.1,14.53-6.15,30.31-6.28,34.44h-36c.31-4,1.25-11.35,2-15.87-7,8.91-16.28,18.59-42.52,18.59-27.72,0-39.35-19.54-39.35-36.09,0-39.16,34.28-49.61,65.3-53,11.72-1.12,22.61-1.12,31.43-1.39l1.22-6.6c2-10.16,2.07-23.44-17.87-23.44-17.57,0-20.77,9.55-24,16.38h-37.68c5.3-22.61,21-42,64.66-42,34.2,0,59.46,14.16,51.53,51.06ZM1131.25,350a202.92,202.92,0,0,0-24.28,1.6c-20.73,3.1-28.87,10-28.87,21.82,0,8.13,5.28,14.42,17.17,14.42,25.5,0,31.9-20.73,35.44-35.67Z" transform="translate(-91.53 -184.89)"/><path class="cls-1" d="M1194.18,272.47H1215l8.22-37.93h36.69l-8,37.93h26.47l-6.31,28.22h-26.46l-14.75,70.8c-1.83,8.76-1.05,14.53,10,14.53a78.37,78.37,0,0,0,12-.88l-5.62,26.75c-8.27,2.62-17.26,2.66-25,2.66-29.26,0-33.86-16.78-28.76-41.39l15.15-72.47h-20.83Z" transform="translate(-91.53 -184.89)"/><rect class="cls-2" x="1085.47" y="240.73" width="101" height="39.37" rx="12.79"/><path class="cls-3" d="M1187.74,454.5v-6.59h5.77v6.59Z" transform="translate(-91.53 -184.89)"/><path class="cls-3" d="M1213.74,448.22c-.67,3.24-2.94,6.73-8.73,6.73-6,0-9.15-4.19-9.15-10s3.49-10.3,9.41-10.3c6.55,0,8.36,4.69,8.47,6.89h-5.25a3,3,0,0,0-3.33-2.69c-2.45,0-3.85,2.16-3.85,5.92,0,4.14,1.48,6,3.83,6a3.3,3.3,0,0,0,3.32-2.55Z" transform="translate(-91.53 -184.89)"/><path class="cls-3" d="M1234.47,444.75c0,5.87-3.51,10.2-9.67,10.2s-9.54-4.3-9.54-10.1c0-6,3.63-10.22,9.8-10.22C1230.77,434.63,1234.47,438.66,1234.47,444.75Zm-13.75,0c0,3.73,1.61,5.95,4.2,5.95s4.09-2.22,4.09-5.92c0-4.07-1.49-6-4.17-6C1222.35,438.83,1220.72,440.68,1220.72,444.79Z" transform="translate(-91.53 -184.89)"/><path class="cls-3" d="M1237.23,440.08c0-1.68,0-3.34,0-5h5.14c.07.47.18,1.55.21,2.31a6,6,0,0,1,5.39-2.76,5.14,5.14,0,0,1,5,2.95,6.71,6.71,0,0,1,6-2.95c3.38,0,6.15,2.08,6.15,7.13V454.5h-5.24V442.41c0-1.75-.64-3.47-2.84-3.47s-3.17,1.48-3.17,4.45V454.5h-5.28V442.61c0-2-.49-3.64-2.79-3.64s-3.22,1.35-3.22,4.68V454.5h-5.31Z" transform="translate(-91.53 -184.89)"/><path class="cls-2" d="M901.53,324c3.89,33-11.57,71.66-42.34,88.83-10.2,5.69-22.25,8.91-36.19,8.91a71,71,0,0,1-33.68-8c-31.6-16.75-46-56.48-43.07-88.68,1-10.72,2.52-28.28,15.75-41.1,13.41-13,30.9-13.18,59.78-13.55,29.59-.38,47.8-.61,62.22,12.55C898.23,296,900.39,314.35,901.53,324ZM776,330.22c0,8.5-.27,44,27,58.77a43.58,43.58,0,0,0,20.9,5.59c33.64,0,47-31.13,47-65.9,0-15.36-6.53-12.92-18.08-.51-9.79,10.52-22.66,11.35-25.71,11.55-2.32.15-18.64.93-30.84-11.55-7.25-7.41-13.2-11-16.83-9.3C776.89,320.09,776.08,324.33,776,330.22Z" transform="translate(-91.53 -184.89)"/><path class="cls-2" d="M824.86,243.39s-9.07-11.54,0-26.18,0-28.24,0-28.24,13.61,13.6,9.07,27.21S824.86,225.25,824.86,243.39Z" transform="translate(-91.53 -184.89)"/><path class="cls-2" d="M803.92,251.8s-9.07-11.54,0-26.18,0-28.25,0-28.25S817.53,211,813,224.59,803.92,233.66,803.92,251.8Z" transform="translate(-91.53 -184.89)"/><path class="cls-2" d="M843,251.8s-9.07-11.54,0-26.18,0-28.25,0-28.25,13.61,13.61,9.07,27.22S843,233.66,843,251.8Z" transform="translate(-91.53 -184.89)"/><path class="cls-3" d="M792.36,305.24c2.27-11,62-13.09,64.55-3.2,1.62,6.38-19.06,23.38-40.94,19.2C804.54,319.05,791.21,310.77,792.36,305.24Z" transform="translate(-91.53 -184.89)"/></svg>